<svg width="18" height="18" viewBox="0 0 18 18" fill="none" xmlns="http://www.w3.org/2000/svg">
<path d="M10.88 9.00008L16.6134 3.28008C16.8644 3.02901 17.0055 2.68849 17.0055 2.33342C17.0055 1.97835 16.8644 1.63782 16.6134 1.38675C16.3623 1.13568 16.0218 0.994629 15.6667 0.994629C15.3116 0.994629 14.9711 1.13568 14.72 1.38675L9.00004 7.12008L3.28004 1.38675C3.02897 1.13568 2.68844 0.994629 2.33337 0.994629C1.97831 0.994629 1.63778 1.13568 1.38671 1.38675C1.13564 1.63782 0.994585 1.97835 0.994585 2.33342C0.994585 2.68849 1.13564 3.02901 1.38671 3.28008L7.12004 9.00008L1.38671 14.7201C1.26174 14.844 1.16254 14.9915 1.09485 15.154C1.02716 15.3165 0.99231 15.4907 0.99231 15.6667C0.99231 15.8428 1.02716 16.017 1.09485 16.1795C1.16254 16.342 1.26174 16.4895 1.38671 16.6134C1.51066 16.7384 1.65813 16.8376 1.8206 16.9053C1.98308 16.973 2.15736 17.0078 2.33337 17.0078C2.50939 17.0078 2.68366 16.973 2.84614 16.9053C3.00862 16.8376 3.15609 16.7384 3.28004 16.6134L9.00004 10.8801L14.72 16.6134C14.844 16.7384 14.9915 16.8376 15.1539 16.9053C15.3164 16.973 15.4907 17.0078 15.6667 17.0078C15.8427 17.0078 16.017 16.973 16.1795 16.9053C16.342 16.8376 16.4894 16.7384 16.6134 16.6134C16.7383 16.4895 16.8375 16.342 16.9052 16.1795C16.9729 16.017 17.0078 15.8428 17.0078 15.6667C17.0078 15.4907 16.9729 15.3165 16.9052 15.154C16.8375 14.9915 16.7383 14.844 16.6134 14.7201L10.88 9.00008Z" fill="black"/>
</svg>
