<svg width="32" height="32" viewBox="0 0 32 32" fill="none" xmlns="http://www.w3.org/2000/svg">
<path d="M8.52539 4.56348H24.1174C24.1174 4.56348 22.8191 25.2727 16.3214 25.2727C13.1493 25.2727 11.215 20.3301 10.0672 15.2751C8.86621 9.98097 8.52539 4.56348 8.52539 4.56348Z" stroke="#D89797" stroke-width="2" stroke-linecap="round" stroke-linejoin="round"/>
<path d="M24.118 4.56342C24.118 4.56342 25.4768 3.02784 26.607 3.00128C28.8201 2.94817 29.2287 4.56342 29.2287 4.56342C29.6625 5.51632 30.0092 7.99075 27.9304 10.2762C25.8501 12.5616 23.5234 14.5611 22.5762 15.275" stroke="#D89797" stroke-width="2" stroke-linecap="round" stroke-linejoin="round"/>
<path d="M8.5255 4.56352C8.5255 4.56352 7.10912 3.01076 5.95093 3.00139C3.73783 2.98264 3.32915 4.56352 3.32915 4.56352C2.89538 5.51643 2.54866 7.99085 4.6275 10.2763C6.30902 12.0968 8.12835 13.7686 10.0673 15.2751" stroke="#D89797" stroke-width="2" stroke-linecap="round" stroke-linejoin="round"/>
<path d="M11.125 29.5576C11.125 26.7005 16.3214 25.2727 16.3214 25.2727C16.3214 25.2727 21.5192 26.7005 21.5192 29.5576H11.125Z" stroke="#D89797" stroke-width="2" stroke-linecap="round" stroke-linejoin="round"/>
</svg>
