<svg width="42" height="42" viewBox="0 0 42 42" fill="none" xmlns="http://www.w3.org/2000/svg">
<path fill-rule="evenodd" clip-rule="evenodd" d="M42 21C42 32.5983 32.5983 42 21 42C9.4017 42 0 32.5983 0 21C0 9.4017 9.4017 0 21 0C32.5983 0 42 9.4017 42 21ZM12.8331 29.1669C12.6363 28.97 12.5257 28.703 12.5257 28.4245C12.5257 28.1461 12.6363 27.8791 12.8331 27.6822L19.5153 21L12.8331 14.3178C12.6418 14.1198 12.536 13.8545 12.5384 13.5792C12.5408 13.3039 12.6512 13.0406 12.8459 12.8459C13.0406 12.6512 13.3039 12.5408 13.5792 12.5384C13.8545 12.536 14.1198 12.6418 14.3178 12.8331L21 19.5153L27.6822 12.8331C27.8802 12.6418 28.1455 12.536 28.4208 12.5384C28.6961 12.5408 28.9594 12.6512 29.1541 12.8459C29.3488 13.0406 29.4592 13.3039 29.4616 13.5792C29.464 13.8545 29.3582 14.1198 29.1669 14.3178L22.4847 21L29.1669 27.6822C29.3582 27.8802 29.464 28.1455 29.4616 28.4208C29.4592 28.6961 29.3488 28.9594 29.1541 29.1541C28.9594 29.3488 28.6961 29.4592 28.4208 29.4616C28.1455 29.464 27.8802 29.3582 27.6822 29.1669L21 22.4847L14.3178 29.1669C14.1209 29.3637 13.8539 29.4743 13.5754 29.4743C13.297 29.4743 13.03 29.3637 12.8331 29.1669Z" fill="#CF0000"/>
</svg>
