<svg width="23" height="21" viewBox="0 0 23 21" fill="none" xmlns="http://www.w3.org/2000/svg">
<path fill-rule="evenodd" clip-rule="evenodd" d="M1.5 5.21767C1.5 3.16446 3.16446 1.5 5.21767 1.5C7.27088 1.5 8.93533 3.16446 8.93533 5.21767C8.93533 7.27088 7.27088 8.93533 5.21767 8.93533C3.16446 8.93533 1.5 7.27088 1.5 5.21767ZM5.21767 0C2.33603 0 0 2.33603 0 5.21767C0 8.09931 2.33603 10.4353 5.21767 10.4353C7.84443 10.4353 10.0178 8.49427 10.3817 5.96826H19.4342C19.8484 5.96826 20.1842 5.63248 20.1842 5.21826C20.1842 4.80405 19.8484 4.46826 19.4342 4.46826H10.3819C10.0185 1.94167 7.84484 0 5.21767 0ZM2.43555 15.7783C2.43555 15.3641 2.77133 15.0283 3.18555 15.0283H12.2379C12.6011 12.5015 14.7749 10.5596 17.4022 10.5596C20.2839 10.5596 22.6199 12.8956 22.6199 15.7772C22.6199 18.6589 20.2839 20.9949 17.4022 20.9949C14.7756 20.9949 12.6024 19.0541 12.2382 16.5283H3.18555C2.77133 16.5283 2.43555 16.1925 2.43555 15.7783ZM13.6846 15.7772C13.6846 13.724 15.349 12.0596 17.4022 12.0596C19.4554 12.0596 21.1199 13.724 21.1199 15.7772C21.1199 17.8304 19.4554 19.4949 17.4022 19.4949C15.349 19.4949 13.6846 17.8304 13.6846 15.7772Z" fill="#02090F"/>
</svg>
