<svg width="42" height="43" viewBox="0 0 42 43" fill="none" xmlns="http://www.w3.org/2000/svg">
<path fill-rule="evenodd" clip-rule="evenodd" d="M21 42.167C32.5983 42.167 42 32.7653 42 21.167C42 9.56869 32.5983 0.166992 21 0.166992C9.4017 0.166992 0 9.56869 0 21.167C0 32.7653 9.4017 42.167 21 42.167ZM32.2791 14.5205C32.3773 14.4193 32.4542 14.2993 32.505 14.1678C32.5559 14.0362 32.5797 13.8958 32.5751 13.7548C32.5705 13.6138 32.5375 13.4752 32.4782 13.3473C32.4188 13.2193 32.3343 13.1046 32.2296 13.0101C32.125 12.9155 32.0024 12.843 31.8691 12.7969C31.7358 12.7507 31.5945 12.732 31.4538 12.7416C31.3131 12.7513 31.1758 12.7892 31.05 12.8531C30.9243 12.917 30.8127 13.0055 30.7219 13.1135L18.144 27.0123L11.2245 20.4068C11.0232 20.2144 10.7536 20.1098 10.4752 20.1161C10.1968 20.1224 9.93223 20.2391 9.7398 20.4404C9.54737 20.6417 9.44281 20.9113 9.44911 21.1897C9.45541 21.4681 9.57206 21.7327 9.7734 21.9251L17.4741 29.2751L18.2542 30.0206L18.9777 29.2205L32.278 14.5205H32.2791Z" fill="#4FB247"/>
</svg>
