<svg width="273" height="273" viewBox="0 0 273 273" fill="none" xmlns="http://www.w3.org/2000/svg">
<rect width="273" height="273" fill="#EFF2F3"/>
<g clip-path="url(#clip0_1642_8090)">
<path d="M91.2779 93.0334C92.0975 96.8034 93.3542 99.2439 94.8203 100.765C98.308 125.042 120.099 145.732 137.602 144.867C159.867 143.774 175.648 119.779 179.191 100.765C180.657 99.253 182.068 96.0203 182.915 92.2229C183.862 87.861 184.882 81.2862 182.259 77.8076C182.105 77.6255 181.103 76.7057 180.93 76.5509C183.434 67.5174 188.934 51.3992 175.238 36.911C167.817 29.0613 157.508 25.1183 148.193 22.0039C120.691 12.8156 101.277 25.7011 92.316 47.1283C91.6695 48.6491 87.4897 58.2745 92.5528 76.5509C92.0611 76.8787 91.6149 77.2976 91.2415 77.8076C88.6098 81.2771 90.3218 88.6715 91.2779 93.0334Z" fill="#C9E0E9"/>
<path d="M233.512 226.552C232.747 209.842 231.8 183.36 217.202 161.696C217.202 161.696 213.041 156.023 203.17 152.253C203.17 152.253 181.733 145.724 171.862 138.667L167.354 141.754L167.855 171.058L140.791 243.307C140.199 244.892 138.688 245.939 137.003 245.939C135.318 245.939 133.807 244.892 133.215 243.307L106.16 171.058C106.16 171.058 106.661 141.845 106.651 141.754C106.715 141.999 102.135 138.667 102.135 138.667C92.2817 145.724 70.8362 152.253 70.8362 152.253C60.965 156.023 56.8034 161.696 56.8034 161.696C42.215 183.36 41.2497 209.842 40.4848 226.552C39.9566 238.099 42.3789 242.406 45.4204 243.635C83.1753 258.788 190.803 258.788 228.567 243.635C231.627 242.415 234.031 238.099 233.512 226.552Z" fill="#C9E0E9"/>
<path d="M137.969 154.2L136.749 154.227C132.815 154.227 128.845 153.462 124.947 152.114L135.675 168.533L126.049 177.821L135.957 237.987C136.039 238.506 136.485 238.879 137.013 238.879C137.532 238.879 137.978 238.506 138.07 237.987L147.977 177.821L138.343 168.533L148.915 152.36C145.464 153.371 141.812 154.045 137.969 154.2Z" fill="#C9E0E9"/>
</g>
<defs>
<clipPath id="clip0_1642_8090">
<rect width="236" height="236" fill="white" transform="translate(19 19)"/>
</clipPath>
</defs>
</svg>
