<svg width="153" height="88" viewBox="0 0 153 88" fill="none" xmlns="http://www.w3.org/2000/svg">
<g clip-path="url(#clip0_792_7689)">
<g opacity="0.5" clip-path="url(#clip1_792_7689)">
<path d="M109.596 64.7847C108.142 65.8487 106.546 66.629 104.879 67.09C103.212 67.5511 101.474 67.7994 99.6652 67.7994C97.3244 67.7994 95.161 67.4092 93.2458 66.629C91.2952 65.8842 89.6637 64.8202 88.3159 63.5434C86.9328 62.2312 85.9043 60.6706 85.1595 58.8973C84.4147 57.0885 84.0601 55.1734 84.0601 53.0454C84.0601 50.9174 84.4502 48.9313 85.1595 47.158C85.8688 45.3492 86.8973 43.8242 88.2096 42.5474C89.5218 41.2706 91.1533 40.242 92.9975 39.5327C94.8772 38.8234 96.9697 38.4688 99.275 38.4688C100.481 38.4688 101.58 38.5751 102.609 38.7879C103.637 39.0007 104.63 39.249 105.482 39.6037C106.368 39.9583 107.184 40.3839 107.893 40.845C108.603 41.306 109.277 41.838 109.844 42.37L107.893 45.3137C107.61 45.7748 107.219 46.0231 106.723 46.1649C106.226 46.2713 105.73 46.1295 105.162 45.7748C104.63 45.4556 104.134 45.1719 103.673 44.9236C103.212 44.7108 102.715 44.498 102.254 44.3561C101.758 44.2143 101.261 44.1079 100.729 44.037C100.197 43.966 99.5943 43.9306 98.9204 43.9306C97.6791 43.9306 96.5796 44.1434 95.5511 44.569C94.558 44.9946 93.7069 45.6329 92.9975 46.4132C92.2882 47.1934 91.7562 48.151 91.3661 49.286C90.976 50.3854 90.7986 51.6622 90.7986 53.0099C90.7986 54.535 91.0114 55.8827 91.4015 57.0886C91.7916 58.2944 92.3946 59.2875 93.1748 60.1032C93.9551 60.9189 94.8418 61.5573 95.9058 61.9829C96.9698 62.444 98.1756 62.6213 99.4524 62.6213C100.268 62.6213 100.977 62.5504 101.651 62.4085C102.325 62.2666 102.928 62.0538 103.567 61.7701L103.602 57.4077H100.765C100.339 57.4077 100.02 57.2659 99.8071 57.0531C99.5588 56.8403 99.4524 56.5566 99.4524 56.2019L99.4878 52.5489L109.667 52.6198L109.596 64.7138V64.7847Z" fill="#02090F"/>
<path fill-rule="evenodd" clip-rule="evenodd" d="M61.2553 70.6381L42.6001 81.5263L42.671 66.9141L67.1427 52.4439L67.2491 56.2743C67.2136 59.6436 70.0155 62.4809 73.5267 62.5163C77.0379 62.5518 79.8751 59.75 79.8751 56.2388C79.8751 54.2881 79.2013 52.3375 77.8181 51.2026C76.7186 50.2805 77.357 48.5071 75.832 48.5071C93.2105 46.5565 93.4588 74.6813 70.2993 74.5394C66.7881 74.4685 63.5961 73.0144 61.2553 70.6381Z" fill="#02090F"/>
<path fill-rule="evenodd" clip-rule="evenodd" d="M71.2926 31.9102C76.0451 34.8539 82.4999 38.7197 85.8692 41.2378C90.3025 44.5361 92.7497 50.1398 92.7143 56.0982C92.6079 74.115 73.9171 77.0233 66.9302 73.9377C74.981 76.1366 83.1737 70.0364 83.2092 61.5954C83.2447 57.2685 81.294 53.1899 77.8893 51.1329L61.3975 41.0959L71.2926 31.9102Z" fill="#02090F"/>
<path fill-rule="evenodd" clip-rule="evenodd" d="M54.5518 36.9096L54.5873 30.0646L93.1745 7.25977L93.0327 22.1911L71.15 35.1717C68.49 36.7677 67.5324 38.3637 67.426 40.9173C67.3551 42.8679 68.6318 45.386 69.6958 46.0244L54.6227 36.8387L54.5518 36.9096Z" fill="#02090F"/>
</g>
</g>
<defs>
<clipPath id="clip0_792_7689">
<rect width="152" height="88" fill="white" transform="translate(0.600098)"/>
</clipPath>
<clipPath id="clip1_792_7689">
<rect width="67.735" height="89.212" fill="white" transform="translate(42.6001 -1)"/>
</clipPath>
</defs>
</svg>
