<svg width="152" height="88" viewBox="0 0 152 88" fill="none" xmlns="http://www.w3.org/2000/svg">
<g clip-path="url(#clip0_792_7687)">
<g opacity="0.5">
<path d="M69.9546 72.3504V16.5205H70.3825V72.3504H69.9546Z" fill="#02090F"/>
<path d="M78.9503 40.4966H78.5361C78.4108 40.4966 78.3794 40.4655 78.3794 40.2911V40.0672C78.3794 39.9239 78.4047 39.8867 78.549 39.8867H78.9443C79.0825 39.8867 79.0763 39.9618 79.0763 40.0983V40.3101C79.0757 40.4594 79.0512 40.4966 78.9503 40.4966ZM78.9503 44.4437H78.5116C78.3985 44.4437 78.3794 44.3877 78.3794 44.2261V41.2816C78.3794 41.1572 78.4047 41.095 78.5301 41.095H78.9258C79.0763 41.095 79.0763 41.1451 79.0763 41.2816V44.2261C79.0757 44.3877 79.0703 44.4437 78.9503 44.4437Z" fill="#02090F"/>
<path d="M82.7695 44.4427H82.362C82.255 44.4427 82.1985 44.3745 82.1985 44.2189V42.2392C82.1985 41.9094 82.0417 41.6233 81.6085 41.6233C81.1254 41.6233 80.9121 42.0276 80.9121 42.3326V44.2068C80.9121 44.369 80.9061 44.4435 80.7869 44.4435H80.3916C80.2533 44.4435 80.2158 44.3751 80.2158 44.2129V41.286C80.2158 41.1615 80.2411 41.0926 80.3665 41.0926H80.7677C80.8746 41.0926 80.9183 41.1988 80.9183 41.4847C81.1315 41.192 81.4389 41.0176 81.9157 41.0176C82.4485 41.0176 82.9064 41.2914 82.9064 42.0885V44.1554C82.907 44.3616 82.8825 44.4427 82.7695 44.4427Z" fill="#02090F"/>
<path d="M85.605 41.6603H85.0279C85.0279 41.7725 85.0279 43.4966 85.0279 43.6771C85.0279 43.8827 85.1281 44.0071 85.2978 44.0071C85.4231 44.0071 85.4858 44.0009 85.6111 43.9698C85.6799 43.9577 85.7303 44.412 85.6737 44.4371C85.5737 44.4742 85.3168 44.5114 85.0845 44.5114C84.4823 44.5114 84.3003 44.1071 84.3003 43.696C84.3003 43.3783 84.3003 41.7536 84.3003 41.6542C84.2437 41.6542 83.9869 41.6542 83.9869 41.6542C83.9052 41.6542 83.8867 41.6041 83.8867 41.5237V41.2871C83.8867 41.1877 83.9058 41.1626 84.0244 41.1626H84.3255V40.5399C84.3255 40.4277 84.4012 40.3966 84.5013 40.3844L84.8399 40.3223C84.9721 40.2972 85.0096 40.3534 85.0096 40.4777V41.1626H85.6118C85.731 41.1626 85.7563 41.2188 85.7563 41.2992V41.5358C85.7555 41.6163 85.7365 41.6603 85.605 41.6603Z" fill="#02090F"/>
<path d="M89.1874 42.9746C88.6982 42.9746 87.324 42.9746 87.324 42.9746C87.324 43.6967 87.6816 43.9894 88.2717 43.9894C88.7861 43.9894 89.0872 43.89 89.2002 43.8529C89.3134 43.8089 89.376 43.84 89.376 43.909V44.22C89.376 44.3322 89.3318 44.3566 89.1689 44.4067C89.081 44.4378 88.6103 44.5127 88.2404 44.5127C87.1618 44.5127 86.6094 44.0335 86.6094 42.8008C86.6094 41.6054 87.1107 41.0078 88.0646 41.0078C88.9366 41.0078 89.4448 41.4872 89.4448 42.3216V42.7076C89.4448 42.8874 89.4197 42.9746 89.1874 42.9746ZM88.0516 41.4553C87.5502 41.4553 87.3493 41.8786 87.3431 42.3769C87.3431 42.4642 87.337 42.5013 87.4249 42.5013H88.6927C88.7555 42.5013 88.7615 42.4702 88.7615 42.3831C88.7487 41.7853 88.5667 41.4553 88.0516 41.4553Z" fill="#02090F"/>
<path d="M92.2734 41.5109C92.2611 41.5731 92.2359 41.6042 92.1794 41.6042C92.0097 41.6042 91.8156 41.6482 91.6712 41.7354C91.3823 41.9037 91.1942 42.1336 91.1942 42.3331V44.2073C91.1942 44.3695 91.1882 44.444 91.069 44.444H90.6737C90.5355 44.444 90.498 44.3756 90.498 44.2134V41.2865C90.498 41.162 90.5232 41.093 90.6486 41.093H91.0498C91.1316 41.093 91.2004 41.1303 91.2004 41.2546C91.2004 41.3358 91.2004 41.4541 91.2004 41.5725C91.4511 41.2175 91.8087 41.0498 92.191 41.0498C92.2413 41.0498 92.2979 41.0498 92.2911 41.1181L92.2734 41.5109Z" fill="#02090F"/>
<path d="M95.6864 44.4427H95.2789C95.1719 44.4427 95.1154 44.3745 95.1154 44.2189V42.2392C95.1154 41.9094 94.9586 41.6233 94.5254 41.6233C94.0424 41.6233 93.8291 42.0276 93.8291 42.3326V44.2068C93.8291 44.369 93.8229 44.4435 93.7037 44.4435H93.3085C93.1703 44.4435 93.1328 44.3751 93.1328 44.2129V41.286C93.1328 41.1615 93.158 41.0926 93.2833 41.0926H93.6846C93.7916 41.0926 93.8353 41.1988 93.8353 41.4847C94.0484 41.192 94.3558 41.0176 94.8326 41.0176C95.3654 41.0176 95.8233 41.2914 95.8233 42.0885V44.1554C95.8246 44.3616 95.7994 44.4427 95.6864 44.4427Z" fill="#02090F"/>
<path d="M99.563 44.4438H99.1679C99.0738 44.4438 99.0172 44.4248 99.0172 44.2632C99.0172 44.2504 99.0172 44.0205 99.0172 44.0016C98.8912 44.2694 98.4838 44.5121 98.0008 44.5121C97.3862 44.5121 96.8779 44.0267 96.8779 42.788C96.8779 41.6927 97.2664 41.0078 97.9884 41.0078C98.528 41.0078 98.8354 41.2073 99.0172 41.5243C99.0172 41.4432 99.0172 41.2878 99.0172 41.2505C99.0172 41.1573 99.0547 41.0951 99.1303 41.0951H99.5317C99.7073 41.0951 99.7141 41.1511 99.7141 41.2816V44.2011C99.7135 44.3626 99.7013 44.4438 99.563 44.4438ZM98.9668 42.2707C98.9668 41.9969 98.7726 41.4804 98.2767 41.4804C97.8502 41.4804 97.6185 41.7793 97.6185 42.5135V43.0361C97.6185 43.646 97.8441 44.0382 98.2896 44.0382C98.7162 44.0382 98.9668 43.5838 98.9668 43.4093V42.2707Z" fill="#02090F"/>
<path d="M102.404 41.6603H101.827C101.827 41.7725 101.827 43.4966 101.827 43.6771C101.827 43.8827 101.927 44.0071 102.097 44.0071C102.222 44.0071 102.285 44.0009 102.41 43.9698C102.479 43.9577 102.528 44.412 102.473 44.4371C102.372 44.4742 102.116 44.5114 101.883 44.5114C101.281 44.5114 101.099 44.1071 101.099 43.696C101.099 43.3783 101.099 41.7536 101.099 41.6542C101.043 41.6542 100.786 41.6542 100.786 41.6542C100.704 41.6542 100.686 41.6041 100.686 41.5237V41.2871C100.686 41.1877 100.705 41.1626 100.823 41.1626H101.124V40.5399C101.124 40.4277 101.2 40.3966 101.3 40.3844L101.639 40.3223C101.771 40.2972 101.808 40.3534 101.808 40.4777V41.1626H102.411C102.529 41.1626 102.555 41.2188 102.555 41.2992V41.5358C102.555 41.6163 102.536 41.6603 102.404 41.6603Z" fill="#02090F"/>
<path d="M104.073 40.4966H103.659C103.533 40.4966 103.502 40.4655 103.502 40.2911V40.0672C103.502 39.9239 103.527 39.8867 103.672 39.8867H104.067C104.205 39.8867 104.199 39.9618 104.199 40.0983V40.3101C104.198 40.4594 104.173 40.4966 104.073 40.4966ZM104.073 44.4437H103.634C103.521 44.4437 103.502 44.3877 103.502 44.2261V41.2816C103.502 41.1572 103.527 41.095 103.653 41.095H104.048C104.199 41.095 104.199 41.1451 104.199 41.2816V44.2261C104.198 44.3877 104.192 44.4437 104.073 44.4437Z" fill="#02090F"/>
<path d="M106.784 44.5121C105.812 44.5121 105.247 44.1139 105.247 42.788C105.247 41.4872 105.868 41.0078 106.815 41.0078C107.743 41.0078 108.277 41.5054 108.277 42.7819C108.277 43.9023 107.718 44.5121 106.784 44.5121ZM107.561 42.4391C107.561 41.8915 107.36 41.4864 106.789 41.4864C106.332 41.4864 105.993 41.7915 105.993 42.4702V43.0801C105.993 43.7589 106.351 44.0328 106.796 44.0328C107.273 44.0328 107.561 43.6217 107.561 43.0057V42.4391Z" fill="#02090F"/>
<path d="M111.877 44.4427H111.469C111.362 44.4427 111.306 44.3745 111.306 44.2189V42.2392C111.306 41.9094 111.149 41.6233 110.716 41.6233C110.233 41.6233 110.02 42.0276 110.02 42.3326V44.2068C110.02 44.369 110.013 44.4435 109.894 44.4435H109.499C109.361 44.4435 109.323 44.3751 109.323 44.2129V41.286C109.323 41.1615 109.349 41.0926 109.474 41.0926H109.875C109.982 41.0926 110.026 41.1988 110.026 41.4847C110.239 41.192 110.546 41.0176 111.023 41.0176C111.556 41.0176 112.014 41.2914 112.014 42.0885V44.1554C112.015 44.3616 111.99 44.4427 111.877 44.4427Z" fill="#02090F"/>
<path d="M115.754 44.4438H115.359C115.265 44.4438 115.208 44.4248 115.208 44.2632C115.208 44.2504 115.208 44.0205 115.208 44.0016C115.082 44.2694 114.675 44.5121 114.192 44.5121C113.578 44.5121 113.069 44.0267 113.069 42.788C113.069 41.6927 113.458 41.0078 114.18 41.0078C114.719 41.0078 115.027 41.2073 115.208 41.5243C115.208 41.4432 115.208 41.2878 115.208 41.2505C115.208 41.1573 115.246 41.0951 115.322 41.0951H115.723C115.899 41.0951 115.905 41.1511 115.905 41.2816V44.2011C115.905 44.3626 115.893 44.4438 115.754 44.4438ZM115.158 42.2707C115.158 41.9969 114.964 41.4804 114.468 41.4804C114.042 41.4804 113.81 41.7793 113.81 42.5135V43.0361C113.81 43.646 114.035 44.0382 114.481 44.0382C114.907 44.0382 115.158 43.5838 115.158 43.4093V42.2707Z" fill="#02090F"/>
<path d="M117.742 44.4423H117.328C117.195 44.4423 117.171 44.4112 117.171 44.2368V39.9847C117.171 39.8724 117.196 39.8164 117.321 39.8164H117.717C117.868 39.8164 117.868 39.8664 117.868 40.0029V44.224C117.867 44.3862 117.861 44.4423 117.742 44.4423Z" fill="#02090F"/>
<path d="M80.1055 52.2129C79.6286 52.2129 79.3145 52.0764 79.089 51.7958V53.2401C79.089 53.3894 79.0637 53.4456 78.9758 53.4456H78.5616C78.4111 53.4456 78.3921 53.3955 78.3921 53.2401V49.019C78.3921 48.8825 78.3921 48.7953 78.5556 48.7953H78.9384C79.0324 48.7953 79.089 48.8392 79.089 48.9697C79.089 48.9818 79.089 49.1252 79.089 49.2002C79.3275 48.8642 79.6981 48.708 80.143 48.708C80.8393 48.708 81.2282 49.3997 81.2282 50.4571C81.2282 51.7337 80.7514 52.2129 80.1055 52.2129ZM80.4876 50.2334C80.4876 49.6107 80.2492 49.1813 79.8228 49.1813C79.3336 49.1813 79.1387 49.6417 79.1387 49.9596V51.1671C79.1387 51.3354 79.3894 51.7337 79.816 51.7337C80.2677 51.7337 80.487 51.3604 80.487 50.7567V50.2334H80.4876Z" fill="#02090F"/>
<path d="M84.0498 49.2123C84.0374 49.2745 84.0123 49.3063 83.9557 49.3063C83.786 49.3063 83.5919 49.3496 83.4475 49.4375C83.1587 49.6059 82.9707 49.8357 82.9707 50.0345V51.9086C82.9707 52.0709 82.9645 52.1453 82.8453 52.1453H82.4502C82.3119 52.1453 82.2744 52.0764 82.2744 51.9148V48.9879C82.2744 48.8642 82.2996 48.7952 82.4249 48.7952H82.8262C82.9079 48.7952 82.9767 48.8331 82.9767 48.9574C82.9767 49.0379 82.9767 49.1563 82.9767 49.2745C83.2275 48.9202 83.5851 48.752 83.9674 48.752C84.0178 48.752 84.0743 48.752 84.0674 48.8201L84.0498 49.2123Z" fill="#02090F"/>
<path d="M86.1634 52.2132C85.1912 52.2132 84.6265 51.8151 84.6265 50.4892C84.6265 49.1884 85.2472 48.709 86.1949 48.709C87.1228 48.709 87.6562 49.2073 87.6562 50.4832C87.6569 51.6035 87.0983 52.2132 86.1634 52.2132ZM86.9415 50.1403C86.9415 49.5927 86.7405 49.1877 86.1696 49.1877C85.7117 49.1877 85.3732 49.4933 85.3732 50.1715V50.7813C85.3732 51.4602 85.7308 51.7333 86.1764 51.7333C86.6526 51.7333 86.9415 51.3229 86.9415 50.7063V50.1403Z" fill="#02090F"/>
<path d="M88.7231 53.4579C88.4723 53.4579 88.2591 53.4017 88.1522 53.3652C88.0895 53.3402 88.1651 52.873 88.2401 52.8798C88.3218 52.8981 88.4281 52.9169 88.5411 52.9169C88.7108 52.9169 88.7422 52.7304 88.7422 52.5688V49.0077C88.7422 48.8712 88.7674 48.7961 88.9117 48.7961H89.3076C89.4207 48.7961 89.4643 48.8523 89.4643 49.0017V52.6682C89.4636 53.1036 89.2627 53.4579 88.7231 53.4579ZM89.307 48.1978H88.9111C88.7857 48.1978 88.7544 48.1795 88.7544 47.9922V47.7806C88.7544 47.6373 88.7797 47.5879 88.924 47.5879H89.3008C89.4513 47.5879 89.433 47.6373 89.433 47.7746V48.0111C89.4323 48.1606 89.4255 48.1978 89.307 48.1978Z" fill="#02090F"/>
<path d="M93.0888 50.6759C92.5996 50.6759 91.2255 50.6759 91.2255 50.6759C91.2255 51.3972 91.5831 51.6906 92.1732 51.6906C92.6875 51.6906 92.9887 51.5905 93.1017 51.5541C93.2149 51.5102 93.2775 51.5413 93.2775 51.6103V51.9212C93.2775 52.0335 93.2332 52.0578 93.0704 52.1078C92.9825 52.1389 92.5118 52.2132 92.1419 52.2132C91.0633 52.2132 90.5107 51.734 90.5107 50.502C90.5107 49.3067 91.0122 48.709 91.9661 48.709C92.8381 48.709 93.3463 49.1884 93.3463 50.0227V50.4081C93.3463 50.5886 93.3212 50.6759 93.0888 50.6759ZM91.9531 49.1567C91.4516 49.1567 91.2506 49.5805 91.2445 50.0781C91.2445 50.1654 91.2385 50.2026 91.3256 50.2026H92.5936C92.6562 50.2026 92.6623 50.1715 92.6623 50.0842C92.65 49.4873 92.4675 49.1567 91.9531 49.1567Z" fill="#02090F"/>
<path d="M95.843 52.2132C94.8707 52.2132 94.2998 51.8151 94.2998 50.4892C94.2998 49.1884 94.9273 48.709 95.8743 48.709C96.4071 48.709 96.7777 48.8456 97.0223 49.1762C97.1034 49.3 96.5768 49.6489 96.514 49.5373C96.3887 49.3378 96.1939 49.1884 95.8675 49.1884C95.4035 49.1884 95.0642 49.4939 95.0642 50.1722V50.7819C95.0642 51.4608 95.422 51.734 95.8675 51.734C96.1496 51.734 96.3697 51.5656 96.5072 51.3418C96.57 51.2113 97.0781 51.454 97.0285 51.5656C96.809 51.9705 96.4193 52.2132 95.843 52.2132Z" fill="#02090F"/>
<path d="M99.4819 49.3617H98.9048C98.9048 49.4739 98.9048 51.198 98.9048 51.3792C98.9048 51.5847 99.0049 51.7091 99.1746 51.7091C99.2999 51.7091 99.3625 51.7024 99.4879 51.672C99.5568 51.6598 99.6065 52.1142 99.5507 52.1391C99.4505 52.177 99.1937 52.2136 98.9613 52.2136C98.3591 52.2136 98.1771 51.8091 98.1771 51.3982C98.1771 51.0804 98.1771 49.4564 98.1771 49.3563C98.1207 49.3563 97.8638 49.3563 97.8638 49.3563C97.782 49.3563 97.7637 49.3069 97.7637 49.2258V48.9891C97.7637 48.8898 97.7827 48.8654 97.9012 48.8654H98.2024V48.2427C98.2024 48.1305 98.278 48.0994 98.3782 48.0866L98.7167 48.0244C98.8489 47.9993 98.8864 48.0555 98.8864 48.1805V48.8654H99.4887C99.6071 48.8654 99.6331 48.9216 99.6331 49.002V49.2386C99.6324 49.3184 99.6133 49.3617 99.4819 49.3617Z" fill="#02090F"/>
<path d="M82.677 59.8457H82.2627C82.1244 59.8457 82.106 59.7767 82.106 59.6219V57.6416C82.106 57.3116 82.0181 57.0189 81.5849 57.0189C81.1775 57.0189 81.014 57.3367 80.9512 57.6416V59.559C80.9512 59.7646 80.9199 59.8457 80.8069 59.8457H80.3803C80.2803 59.8457 80.242 59.7767 80.242 59.6219V57.6416C80.242 57.3116 80.1542 57.0189 79.7154 57.0189C79.2324 57.0189 79.0757 57.4299 79.0757 57.7348V59.609C79.0757 59.7714 79.0695 59.8457 78.9503 59.8457H78.5552C78.4169 59.8457 78.3794 59.7767 78.3794 59.6151V56.6889C78.3794 56.5652 78.4047 56.4962 78.5301 56.4962H78.9313C79.0382 56.4962 79.0818 56.5584 79.0818 56.8451C79.3013 56.5524 79.5458 56.4219 79.9846 56.4219C80.3803 56.4219 80.6685 56.5713 80.8505 56.9816C81.0889 56.6328 81.39 56.4219 81.8478 56.4219C82.3745 56.4219 82.8139 56.6957 82.8139 57.4921V59.559C82.8145 59.7646 82.79 59.8457 82.677 59.8457Z" fill="#02090F"/>
<path d="M86.5527 59.845H86.1575C86.0636 59.845 86.007 59.826 86.007 59.6638C86.007 59.6516 86.007 59.4211 86.007 59.4021C85.8809 59.6706 85.4735 59.9126 84.9905 59.9126C84.376 59.9126 83.8677 59.4271 83.8677 58.1884C83.8677 57.0932 84.2561 56.4082 84.9782 56.4082C85.5178 56.4082 85.8251 56.6077 86.007 56.9255C86.007 56.8444 86.007 56.6888 86.007 56.6517C86.007 56.5583 86.0444 56.4961 86.12 56.4961H86.5214C86.6971 56.4961 86.7039 56.5523 86.7039 56.6828V59.6022C86.7032 59.7638 86.6911 59.845 86.5527 59.845ZM85.9565 57.6726C85.9565 57.3988 85.7624 56.8823 85.2664 56.8823C84.84 56.8823 84.6082 57.181 84.6082 57.9153V58.4379C84.6082 59.0478 84.8338 59.44 85.2794 59.44C85.7059 59.44 85.9565 58.9857 85.9565 58.8111V57.6726Z" fill="#02090F"/>
<path d="M90.3979 59.8457H89.9904C89.8834 59.8457 89.827 59.7767 89.827 59.6219V57.6416C89.827 57.3116 89.6703 57.0256 89.2369 57.0256C88.7538 57.0256 88.5406 57.4299 88.5406 57.7348V59.609C88.5406 59.7714 88.5345 59.8457 88.4153 59.8457H88.02C87.8818 59.8457 87.8442 59.7767 87.8442 59.6151V56.6889C87.8442 56.5652 87.8695 56.4962 87.9949 56.4962H88.3961C88.5032 56.4962 88.5467 56.6016 88.5467 56.8884C88.7599 56.5956 89.0673 56.4219 89.5441 56.4219C90.0769 56.4219 90.5348 56.6957 90.5348 57.4921V59.559C90.5354 59.7646 90.5103 59.8457 90.3979 59.8457Z" fill="#02090F"/>
<path d="M94.2738 59.845H93.8787C93.7846 59.845 93.728 59.826 93.728 59.6638C93.728 59.6516 93.728 59.4211 93.728 59.4021C93.602 59.6706 93.1946 59.9126 92.7116 59.9126C92.097 59.9126 91.5889 59.4271 91.5889 58.1884C91.5889 57.0932 91.9772 56.4082 92.6994 56.4082C93.2389 56.4082 93.5462 56.6077 93.728 56.9255C93.728 56.8444 93.728 56.6888 93.728 56.6517C93.728 56.5583 93.7655 56.4961 93.8412 56.4961H94.2425C94.4182 56.4961 94.4243 56.5523 94.4243 56.6828V59.6022C94.4243 59.7638 94.4121 59.845 94.2738 59.845ZM93.6784 57.6726C93.6784 57.3988 93.4842 56.8823 92.9883 56.8823C92.5617 56.8823 92.3301 57.181 92.3301 57.9153V58.4379C92.3301 59.0478 92.5555 59.44 93.0011 59.44C93.4276 59.44 93.6784 58.9857 93.6784 58.8111V57.6726Z" fill="#02090F"/>
<path d="M97.0031 61.1777C96.4198 61.1777 96.1623 61.1155 96.0179 61.0838C95.8994 61.0527 95.836 61.0344 95.836 60.9222V60.6043C95.836 60.524 95.8796 60.5051 96.0805 60.5551C96.306 60.6111 96.5949 60.6855 96.9273 60.6855C97.3852 60.6855 97.5985 60.3989 97.6175 59.6835C97.6175 59.6463 97.6114 59.503 97.6114 59.4598C97.3852 59.7647 97.0718 59.9141 96.5949 59.9141C95.9484 59.9141 95.4722 59.4347 95.4722 58.1582C95.4722 57.1007 95.8605 56.4092 96.5567 56.4092C96.9648 56.4092 97.3601 56.5214 97.6114 56.8514C97.6114 56.5457 97.6366 56.4963 97.762 56.4963H98.1449C98.3084 56.4963 98.3016 56.5836 98.3016 56.7201V59.3725C98.3016 60.6923 97.8818 61.1777 97.0031 61.1777ZM97.5617 57.66C97.5617 57.3421 97.3675 56.8817 96.8777 56.8817C96.4512 56.8817 96.2127 57.311 96.2127 57.9338V58.4571C96.2127 59.0608 96.432 59.434 96.8837 59.434C97.3164 59.434 97.561 59.0359 97.561 58.8553V57.66H97.5617Z" fill="#02090F"/>
<path d="M101.934 58.3769C101.444 58.3769 100.07 58.3769 100.07 58.3769C100.07 59.0984 100.428 59.3918 101.018 59.3918C101.532 59.3918 101.833 59.2917 101.946 59.2553C102.06 59.2113 102.122 59.2423 102.122 59.3113V59.6224C102.122 59.7346 102.078 59.759 101.915 59.809C101.827 59.8401 101.356 59.9144 100.986 59.9144C99.908 59.9144 99.3555 59.435 99.3555 58.2032C99.3555 57.0078 99.857 56.4102 100.811 56.4102C101.683 56.4102 102.191 56.8894 102.191 57.7238V58.1093C102.191 58.2897 102.165 58.3769 101.934 58.3769ZM100.798 56.857C100.296 56.857 100.095 57.2809 100.089 57.7786C100.089 57.8658 100.083 57.903 100.171 57.903H101.439C101.502 57.903 101.508 57.8719 101.508 57.7846C101.495 57.1877 101.312 56.857 100.798 56.857Z" fill="#02090F"/>
<path d="M107.541 59.8457H107.127C106.989 59.8457 106.97 59.7767 106.97 59.6219V57.6416C106.97 57.3116 106.882 57.0189 106.449 57.0189C106.042 57.0189 105.878 57.3367 105.816 57.6416V59.559C105.816 59.7646 105.784 59.8457 105.671 59.8457H105.245C105.145 59.8457 105.106 59.7767 105.106 59.6219V57.6416C105.106 57.3116 105.018 57.0189 104.58 57.0189C104.097 57.0189 103.94 57.4299 103.94 57.7348V59.609C103.94 59.7714 103.934 59.8457 103.815 59.8457H103.419C103.281 59.8457 103.244 59.7767 103.244 59.6151V56.6889C103.244 56.5652 103.269 56.4962 103.394 56.4962H103.796C103.902 56.4962 103.946 56.5584 103.946 56.8451C104.165 56.5524 104.41 56.4219 104.849 56.4219C105.245 56.4219 105.533 56.5713 105.715 56.9816C105.954 56.6328 106.255 56.4219 106.713 56.4219C107.239 56.4219 107.679 56.6957 107.679 57.4921V59.559C107.679 59.7646 107.654 59.8457 107.541 59.8457Z" fill="#02090F"/>
<path d="M111.312 58.3769C110.823 58.3769 109.449 58.3769 109.449 58.3769C109.449 59.0984 109.807 59.3918 110.397 59.3918C110.911 59.3918 111.212 59.2917 111.325 59.2553C111.438 59.2113 111.501 59.2423 111.501 59.3113V59.6224C111.501 59.7346 111.457 59.759 111.294 59.809C111.206 59.8401 110.735 59.9144 110.365 59.9144C109.287 59.9144 108.734 59.435 108.734 58.2032C108.734 57.0078 109.236 56.4102 110.19 56.4102C111.062 56.4102 111.57 56.8894 111.57 57.7238V58.1093C111.569 58.2897 111.544 58.3769 111.312 58.3769ZM110.177 56.857C109.675 56.857 109.474 57.2809 109.468 57.7786C109.468 57.8658 109.462 57.903 109.549 57.903H110.817C110.88 57.903 110.886 57.8719 110.886 57.7846C110.873 57.1877 110.691 56.857 110.177 56.857Z" fill="#02090F"/>
<path d="M115.176 59.8457H114.768C114.661 59.8457 114.605 59.7767 114.605 59.6219V57.6416C114.605 57.3116 114.448 57.0256 114.015 57.0256C113.532 57.0256 113.318 57.4299 113.318 57.7348V59.609C113.318 59.7714 113.312 59.8457 113.193 59.8457H112.798C112.66 59.8457 112.622 59.7767 112.622 59.6151V56.6889C112.622 56.5652 112.647 56.4962 112.773 56.4962H113.174C113.281 56.4962 113.325 56.6016 113.325 56.8884C113.538 56.5956 113.845 56.4219 114.322 56.4219C114.855 56.4219 115.312 56.6957 115.312 57.4921V59.559C115.313 59.7646 115.288 59.8457 115.176 59.8457Z" fill="#02090F"/>
<path d="M118.011 57.0619H117.434C117.434 57.1742 117.434 58.8983 117.434 59.0794C117.434 59.2849 117.534 59.4094 117.704 59.4094C117.829 59.4094 117.892 59.4026 118.017 59.3722C118.086 59.36 118.137 59.8144 118.08 59.8394C117.98 59.8772 117.723 59.9138 117.491 59.9138C116.888 59.9138 116.707 59.5095 116.707 59.0984C116.707 58.7806 116.707 57.1566 116.707 57.0565C116.65 57.0565 116.393 57.0565 116.393 57.0565C116.311 57.0565 116.293 57.0071 116.293 56.926V56.6894C116.293 56.59 116.312 56.5656 116.431 56.5656H116.732V55.943C116.732 55.8307 116.807 55.7996 116.908 55.7868L117.246 55.7246C117.378 55.6995 117.416 55.7557 117.416 55.8807V56.5656H118.018C118.137 56.5656 118.162 56.6218 118.162 56.7022V56.9388C118.162 57.0186 118.143 57.0619 118.011 57.0619Z" fill="#02090F"/>
<path d="M80.9696 67.5463H80.5745C80.4804 67.5463 80.4239 67.5281 80.4239 67.3659C80.4239 67.3536 80.4239 67.1231 80.4239 67.1042C80.2979 67.3719 79.8905 67.6146 79.4074 67.6146C78.7928 67.6146 78.2847 67.1292 78.2847 65.8906C78.2847 64.7946 78.673 64.1104 79.3952 64.1104C79.9348 64.1104 80.242 64.3098 80.4239 64.6269C80.4239 64.5457 80.4239 64.3903 80.4239 64.3531C80.4239 64.2591 80.4614 64.197 80.537 64.197H80.9383C81.1141 64.197 81.1209 64.253 81.1209 64.3841V67.3036C81.1202 67.4652 81.1079 67.5463 80.9696 67.5463ZM80.3735 65.3733C80.3735 65.0995 80.1794 64.583 79.6834 64.583C79.2568 64.583 79.0252 64.8812 79.0252 65.6161V66.1394C79.0252 66.7492 79.2507 67.1413 79.6962 67.1413C80.1228 67.1413 80.3735 66.687 80.3735 66.5126V65.3733Z" fill="#02090F"/>
<path d="M83.2462 67.6148C82.6317 67.6148 82.293 67.4836 82.167 67.4153C82.1042 67.3849 82.1289 66.8988 82.2542 66.942C82.3803 66.986 82.5996 67.0983 83.0889 67.0983C83.4963 67.0983 83.7286 66.9799 83.7286 66.6622C83.7286 66.4066 83.5153 66.2078 83.0949 65.9901C82.6187 65.7474 82.1921 65.4979 82.1921 64.9942C82.1921 64.3904 82.7815 64.1045 83.4152 64.1045C83.8791 64.1045 84.1803 64.172 84.262 64.2099C84.3309 64.241 84.2177 64.6893 84.1115 64.6704C84.0052 64.6399 83.7041 64.571 83.4595 64.571C83.0957 64.571 82.8952 64.7075 82.8952 64.9759C82.8952 65.1686 83.1651 65.3302 83.4914 65.5047C84.0808 65.8156 84.4508 66.1091 84.4508 66.6872C84.4508 67.4525 83.811 67.6148 83.2462 67.6148Z" fill="#02090F"/>
<path d="M86.459 67.6148C85.8445 67.6148 85.5059 67.4836 85.3798 67.4153C85.3172 67.3849 85.3417 66.8988 85.4671 66.942C85.5931 66.986 85.8125 67.0983 86.3016 67.0983C86.709 67.0983 86.9414 66.9799 86.9414 66.6622C86.9414 66.4066 86.7281 66.2078 86.3077 65.9901C85.8315 65.7474 85.4045 65.4979 85.4045 64.9942C85.4045 64.3904 85.9937 64.1045 86.6273 64.1045C87.0913 64.1045 87.3923 64.172 87.4741 64.2099C87.543 64.241 87.4298 64.6893 87.3235 64.6704C87.2173 64.6399 86.9161 64.571 86.6715 64.571C86.3077 64.571 86.1074 64.7075 86.1074 64.9759C86.1074 65.1686 86.3773 65.3302 86.7036 65.5047C87.2929 65.8156 87.6628 66.1091 87.6628 66.6872C87.6628 67.4525 87.0231 67.6148 86.459 67.6148Z" fill="#02090F"/>
<path d="M90.1282 67.6156C89.1561 67.6156 88.5913 67.2174 88.5913 65.8915C88.5913 64.5907 89.212 64.1113 90.1597 64.1113C91.0876 64.1113 91.621 64.6097 91.621 65.8854C91.621 67.005 91.0623 67.6156 90.1282 67.6156ZM90.9056 65.5426C90.9056 64.9944 90.7047 64.5901 90.1337 64.5901C89.6759 64.5901 89.3374 64.8956 89.3374 65.5737V66.1836C89.3374 66.8624 89.695 67.1363 90.1406 67.1363C90.6168 67.1363 90.9056 66.7252 90.9056 66.1093V65.5426Z" fill="#02090F"/>
<path d="M94.1121 67.6146C93.1398 67.6146 92.5688 67.2165 92.5688 65.8906C92.5688 64.5898 93.1963 64.1104 94.1434 64.1104C94.6762 64.1104 95.0468 64.247 95.2913 64.5776C95.3724 64.702 94.8458 65.0501 94.7831 64.9385C94.6577 64.7392 94.4629 64.5904 94.1366 64.5904C93.6725 64.5904 93.3332 64.896 93.3332 65.5742V66.184C93.3332 66.8628 93.691 67.1366 94.1366 67.1366C94.4186 67.1366 94.6387 66.9683 94.7762 66.7445C94.839 66.6133 95.3473 66.8567 95.2975 66.9683C95.0781 67.3719 94.6891 67.6146 94.1121 67.6146Z" fill="#02090F"/>
<path d="M96.7721 63.5987H96.3579C96.2325 63.5987 96.2012 63.5676 96.2012 63.3932V63.1695C96.2012 63.026 96.2263 62.9883 96.3708 62.9883H96.7659C96.9043 62.9883 96.8981 63.0633 96.8981 63.1999V63.4115C96.8975 63.5616 96.8722 63.5987 96.7721 63.5987ZM96.7721 67.5459H96.3334C96.2203 67.5459 96.2012 67.4898 96.2012 67.3282V64.3837C96.2012 64.2587 96.2263 64.1965 96.3517 64.1965H96.7476C96.8981 64.1965 96.8981 64.2465 96.8981 64.3837V67.3282C96.8975 67.4898 96.8913 67.5459 96.7721 67.5459Z" fill="#02090F"/>
<path d="M100.629 67.5463H100.234C100.14 67.5463 100.084 67.5281 100.084 67.3659C100.084 67.3536 100.084 67.1231 100.084 67.1042C99.9576 67.3719 99.5502 67.6146 99.0672 67.6146C98.4526 67.6146 97.9443 67.1292 97.9443 65.8906C97.9443 64.7946 98.3326 64.1104 99.0548 64.1104C99.5945 64.1104 99.9017 64.3098 100.084 64.6269C100.084 64.5457 100.084 64.3903 100.084 64.3531C100.084 64.2591 100.121 64.197 100.197 64.197H100.598C100.774 64.197 100.781 64.253 100.781 64.3841V67.3036C100.78 67.4652 100.768 67.5463 100.629 67.5463ZM100.033 65.3733C100.033 65.0995 99.839 64.583 99.3431 64.583C98.9165 64.583 98.6849 64.8812 98.6849 65.6161V66.1394C98.6849 66.7492 98.9104 67.1413 99.356 67.1413C99.7824 67.1413 100.033 66.687 100.033 66.5126V65.3733Z" fill="#02090F"/>
<path d="M103.471 64.7638H102.894C102.894 64.876 102.894 66.6009 102.894 66.7814C102.894 66.9869 102.994 67.1112 103.164 67.1112C103.289 67.1112 103.352 67.1046 103.477 67.0741C103.546 67.0612 103.597 67.5156 103.54 67.5406C103.44 67.5785 103.183 67.6157 102.951 67.6157C102.348 67.6157 102.166 67.2113 102.166 66.8003C102.166 66.4825 102.166 64.8577 102.166 64.7585C102.11 64.7585 101.853 64.7585 101.853 64.7585C101.771 64.7585 101.753 64.7083 101.753 64.6272V64.3906C101.753 64.2912 101.772 64.2661 101.89 64.2661H102.192V63.6435C102.192 63.5312 102.267 63.5001 102.367 63.488L102.706 63.4258C102.838 63.4007 102.876 63.4569 102.876 63.5812V64.2661H103.478C103.597 64.2661 103.622 64.3223 103.622 64.4028V64.6395C103.622 64.7206 103.603 64.7638 103.471 64.7638Z" fill="#02090F"/>
<path d="M105.139 63.5987H104.725C104.6 63.5987 104.568 63.5676 104.568 63.3932V63.1695C104.568 63.026 104.594 62.9883 104.738 62.9883H105.133C105.271 62.9883 105.265 63.0633 105.265 63.1999V63.4115C105.265 63.5616 105.239 63.5987 105.139 63.5987ZM105.139 67.5459H104.701C104.587 67.5459 104.568 67.4898 104.568 67.3282V64.3837C104.568 64.2587 104.594 64.1965 104.719 64.1965H105.115C105.265 64.1965 105.265 64.2465 105.265 64.3837V67.3282C105.265 67.4898 105.258 67.5459 105.139 67.5459Z" fill="#02090F"/>
<path d="M107.849 67.6146C106.877 67.6146 106.312 67.2165 106.312 65.8906C106.312 64.5898 106.933 64.1104 107.881 64.1104C108.809 64.1104 109.342 64.6087 109.342 65.8844C109.342 67.0041 108.784 67.6146 107.849 67.6146ZM108.627 65.5417C108.627 64.9934 108.426 64.5891 107.855 64.5891C107.397 64.5891 107.059 64.8946 107.059 65.5727V66.1827C107.059 66.8614 107.416 67.1353 107.862 67.1353C108.338 67.1353 108.627 66.7242 108.627 66.1083V65.5417Z" fill="#02090F"/>
<path d="M112.944 67.5467H112.536C112.429 67.5467 112.373 67.4783 112.373 67.3228V65.3424C112.373 65.0126 112.216 64.7265 111.783 64.7265C111.3 64.7265 111.087 65.1308 111.087 65.4358V67.3093C111.087 67.4716 111.08 67.5459 110.961 67.5459H110.566C110.428 67.5459 110.39 67.4777 110.39 67.3153V64.3899C110.39 64.2654 110.415 64.1964 110.541 64.1964H110.942C111.049 64.1964 111.093 64.3026 111.093 64.5893C111.306 64.2965 111.613 64.1221 112.09 64.1221C112.623 64.1221 113.081 64.3959 113.081 65.1931V67.2599C113.081 67.4654 113.056 67.5467 112.944 67.5467Z" fill="#02090F"/>
<path d="M78.2852 22.1239V32.6009C78.2852 32.9458 78.5664 33.2264 78.9119 33.2264C79.2573 33.2264 79.5394 32.9458 79.5394 32.6009V22.1239C79.5394 21.7798 79.2573 21.5039 78.9119 21.5039C78.5664 21.5039 78.2852 21.7798 78.2852 22.1239Z" fill="#02090F"/>
<path d="M86.2987 21.5026C85.952 21.5026 85.6699 21.7785 85.6699 22.1226V32.5997C85.6699 32.9444 85.952 33.225 86.2987 33.225C86.6476 33.225 86.9275 32.9444 86.9275 32.5997C86.9275 32.5997 86.9275 23.8474 86.9275 22.748C87.9782 22.748 93.6881 22.748 93.6881 22.748C95.7135 22.748 96.6155 23.8677 96.6155 24.9792C96.6155 26.0786 95.7019 27.2536 93.6881 27.2536H88.7358C88.3931 27.2536 88.1089 27.5308 88.1089 27.8784C88.1089 28.2205 88.3931 28.4997 88.7358 28.4997H93.6881C96.4377 28.4997 97.8698 26.727 97.8698 24.9792C97.8698 23.2504 96.4377 21.502 93.6881 21.502H86.2987V21.5026Z" fill="#02090F"/>
<path d="M102.259 21.2436C101.999 21.3261 101.823 21.5634 101.823 21.8352V32.6726C101.823 33.0181 102.104 33.2953 102.452 33.2953C102.795 33.2953 103.081 33.0174 103.081 32.6726C103.081 32.6726 103.081 26.3618 103.081 23.7567C104.631 25.8831 108.475 31.1622 108.475 31.1622C108.59 31.3238 108.784 31.4171 108.983 31.4171C109.184 31.4171 109.369 31.3238 109.491 31.1622C109.491 31.1622 113.259 26.0156 114.801 23.9149C114.801 26.4842 114.801 32.5901 114.801 32.5901C114.801 32.9329 115.084 33.2135 115.43 33.2135C115.773 33.2135 116.054 32.9329 116.054 32.5901V21.9995C116.054 21.7318 115.883 21.4945 115.624 21.4127C115.366 21.3261 115.083 21.4154 114.924 21.6337C114.924 21.6337 109.846 28.5564 108.986 29.7322C108.121 28.5537 102.959 21.4681 102.959 21.4681C102.8 21.2538 102.516 21.1591 102.259 21.2436Z" fill="#02090F"/>
<path d="M134.142 32.0298L127.581 21.5446C127.465 21.3607 127.259 21.2539 127.045 21.2539C126.827 21.2539 126.625 21.3641 126.513 21.546L119.956 32.1061C119.775 32.4016 119.87 32.7837 120.164 32.9668C120.459 33.1461 120.846 33.0548 121.028 32.7627C121.028 32.7627 126.152 24.5053 127.048 23.0564C127.526 23.8197 129.185 26.4681 130.637 28.7966H125.548C125.204 28.7966 124.918 29.0752 124.918 29.4173C124.918 29.7628 125.204 30.04 125.548 30.04H131.422C132.365 31.5457 133.078 32.6917 133.078 32.6917C133.259 32.9824 133.648 33.0737 133.94 32.8932C134.238 32.7086 134.329 32.3252 134.142 32.0298Z" fill="#02090F"/>
<path d="M140.062 21.6436L137.562 19.449C137.359 19.2651 136.997 19.2407 136.82 19.449C136.613 19.6903 136.692 19.9838 136.899 20.1677L139.025 22.0425L136.934 23.8897C136.722 24.0702 136.63 24.436 136.819 24.6361C137.024 24.8511 137.358 24.8166 137.562 24.6361L140.062 22.4387C140.397 22.1365 140.397 21.9107 140.062 21.6436Z" fill="#02090F"/>
<path d="M136.908 21.6446L134.415 19.4499C134.21 19.266 133.846 19.2417 133.671 19.4499C133.464 19.6913 133.543 19.9847 133.749 20.1686L135.873 22.0435L133.781 23.8906C133.58 24.0712 133.483 24.4369 133.671 24.6371C133.873 24.8521 134.21 24.8176 134.415 24.6371L136.908 22.4397C137.246 22.1375 137.251 21.9117 136.908 21.6446Z" fill="#02090F"/>
<path d="M138.741 29.9785C139.005 29.9785 139.262 30.0454 139.513 30.1799C139.765 30.3145 139.961 30.5065 140.102 30.7567C140.242 31.0068 140.311 31.2678 140.311 31.539C140.311 31.8073 140.243 32.0657 140.104 32.3138C139.967 32.562 139.773 32.7547 139.524 32.8912C139.274 33.0285 139.014 33.0968 138.741 33.0968C138.47 33.0968 138.209 33.0285 137.959 32.8912C137.71 32.754 137.516 32.5612 137.377 32.3138C137.238 32.0657 137.169 31.8073 137.169 31.539C137.169 31.2678 137.239 31.0068 137.38 30.7567C137.521 30.5065 137.717 30.3145 137.968 30.1799C138.219 30.0454 138.478 29.9785 138.741 29.9785ZM138.741 30.2368C138.521 30.2368 138.306 30.2929 138.097 30.4052C137.888 30.5174 137.724 30.6776 137.606 30.8865C137.488 31.0954 137.429 31.3125 137.429 31.5382C137.429 31.7628 137.487 31.9785 137.603 32.1839C137.719 32.3902 137.881 32.5505 138.089 32.6654C138.298 32.7803 138.515 32.8377 138.741 32.8377C138.967 32.8377 139.185 32.7803 139.393 32.6654C139.601 32.5505 139.764 32.3895 139.879 32.1839C139.994 31.9778 140.052 31.7628 140.052 31.5382C140.052 31.3125 139.993 31.0947 139.876 30.8865C139.758 30.6776 139.595 30.5174 139.385 30.4052C139.175 30.2929 138.961 30.2368 138.741 30.2368ZM138.053 32.4004V30.7222H138.634C138.832 30.7222 138.976 30.7377 139.065 30.7688C139.154 30.8 139.224 30.8541 139.278 30.9312C139.33 31.0083 139.356 31.09 139.356 31.1773C139.356 31.2996 139.312 31.4064 139.224 31.4977C139.136 31.5883 139.019 31.6397 138.873 31.6506C138.933 31.6755 138.981 31.7053 139.017 31.7391C139.085 31.8054 139.169 31.9163 139.267 32.0717L139.474 32.4004H139.14L138.991 32.136C138.873 31.9278 138.777 31.7979 138.705 31.7452C138.655 31.7066 138.583 31.687 138.487 31.687H138.326V32.4004H138.053ZM138.325 31.4558H138.656C138.814 31.4558 138.923 31.4322 138.98 31.3855C139.037 31.3389 139.067 31.2766 139.067 31.1995C139.067 31.1503 139.052 31.1056 139.025 31.0664C138.997 31.0272 138.959 30.9981 138.909 30.9785C138.86 30.9589 138.769 30.9494 138.635 30.9494H138.325V31.4558Z" fill="#02090F"/>
<path fill-rule="evenodd" clip-rule="evenodd" d="M58.4011 17.0215H11.1864C9.43344 17.0215 8 18.4319 8 20.1573V69.5555C8 71.2802 9.43344 72.6912 11.1864 72.6919H58.4011C60.1541 72.6919 61.5869 71.2808 61.5869 69.5555V20.158C61.5869 18.4325 60.1534 17.0215 58.4011 17.0215ZM30.7838 38.935L21.0584 48.5351C20.1584 49.4256 20.0964 50.8169 20.9289 51.6371L21.2981 51.9989C22.13 52.8176 23.5369 52.7608 24.4389 51.8765L35.8322 40.6232C36.7143 39.7572 36.7852 38.4055 36.0086 37.5773C35.8954 37.3677 35.753 37.1663 35.5719 36.9898L24.178 25.7454C23.276 24.8563 21.8664 24.7968 21.0359 25.6169L20.6694 25.9807C19.8402 26.8021 19.8975 28.1909 20.7927 29.0806L30.7838 38.935ZM36.8328 48.5351L46.5582 38.935L36.5671 29.0806C35.6718 28.1909 35.6139 26.8021 36.4437 25.9807L36.8102 25.6169C37.6414 24.7968 39.0504 24.8563 39.9531 25.7454L51.347 36.9898C51.5275 37.1663 51.6706 37.3677 51.7823 37.5773C52.5597 38.4055 52.4888 39.7572 51.6072 40.6232L40.2133 51.8765C39.3113 52.7608 37.9044 52.8176 37.0726 51.9989L36.7033 51.6371C35.8702 50.8169 35.9321 49.4256 36.8328 48.5351ZM16.9425 60.0202C17.5788 60.0202 18.2036 60.1134 18.7915 60.3684L18.6975 61.4962C18.179 61.1939 17.602 61.0425 17.0018 61.0425C15.1051 61.0425 13.846 62.3906 13.846 64.2148C13.846 66.1207 15.2352 67.387 16.9425 67.387C17.5318 67.387 18.3207 67.2377 18.7322 66.9929L18.8031 68.1206C18.179 68.3789 17.4139 68.4134 16.9309 68.4134C14.3291 68.4134 12.5979 66.761 12.5979 64.181C12.5979 61.682 14.4354 60.0202 16.9425 60.0202ZM23.7486 61.0431C21.9356 61.0323 21.0404 62.5657 21.0404 64.2155C21.0404 65.8314 21.8525 67.3878 23.7486 67.3878C25.6439 67.3878 26.4567 65.8314 26.4567 64.2155C26.4567 62.5657 25.5622 61.0323 23.7486 61.0431ZM23.7486 68.4134C21.2408 68.4134 19.7923 66.6799 19.7923 64.2155C19.7923 61.8098 21.2523 60.0202 23.7486 60.0202C26.2448 60.0202 27.7049 61.8098 27.7049 64.2155C27.7049 66.6799 26.2557 68.4134 23.7486 68.4134ZM31.4969 68.2722H29.3072V60.1601H31.5324C33.2396 60.1601 34.4169 60.7057 34.4169 62.2047C34.4169 63.3209 33.7581 63.8794 32.7211 64.1343V64.158C33.8399 64.2506 34.6288 64.9713 34.6288 66.1099C34.6288 67.8536 33.1694 68.2722 31.4969 68.2722ZM31.2495 64.5759H30.4838V67.3188H31.3668C32.4275 67.3188 33.3807 67.0983 33.3807 66.0057C33.3807 64.7509 32.2619 64.5759 31.2495 64.5759ZM31.7204 61.1121H30.4838V63.6225H31.131C32.2736 63.6225 33.239 63.5176 33.239 62.3209C33.239 61.3569 32.403 61.1121 31.7204 61.1121ZM37.807 68.2722H36.6304V60.1601H37.807V63.5529H41.74V60.1601H42.9173V68.2722H41.74V64.5759H37.807V68.2722ZM49.735 68.2722H45.1316V60.1601H49.735V61.1824H46.3088V63.5529H49.4291V64.5759H46.3088V67.2492H49.735V68.2722ZM54.4332 68.2722H53.2559V61.1824H50.701V60.1601H56.9887V61.1824H54.4332V68.2722Z" fill="#02090F"/>
</g>
</g>
<defs>
<clipPath id="clip0_792_7687">
<rect width="152" height="88" fill="white"/>
</clipPath>
</defs>
</svg>
